<mxfile host="app.diagrams.net" modified="2023-02-16T02:08:04.100Z" agent="5.0 (Windows NT 10.0; Win64; x64) AppleWebKit/537.36 (KHTML, like Gecko) Chrome/109.0.0.0 Safari/537.36" etag="QW4AA_SfY2lsIcxD8FOA" version="20.8.20" type="github">
  <diagram name="Page-1" id="e7e014a7-5840-1c2e-5031-d8a46d1fe8dd">
    <mxGraphModel dx="3505" dy="906" grid="1" gridSize="10" guides="1" tooltips="1" connect="1" arrows="1" fold="1" page="1" pageScale="1" pageWidth="1169" pageHeight="826" background="none" math="0" shadow="0">
      <root>
        <mxCell id="0" />
        <mxCell id="1" parent="0" />
        <mxCell id="7Sdm-dlIE7TSx_qIGZJZ-48" value="" style="ellipse;shape=cloud;whiteSpace=wrap;html=1;" vertex="1" parent="1">
          <mxGeometry x="-1243" y="200" width="120" height="80" as="geometry" />
        </mxCell>
        <mxCell id="7Sdm-dlIE7TSx_qIGZJZ-51" value="Secure Login" style="ellipse;whiteSpace=wrap;html=1;" vertex="1" parent="1">
          <mxGeometry x="200" y="170" width="140" height="70" as="geometry" />
        </mxCell>
        <mxCell id="7Sdm-dlIE7TSx_qIGZJZ-52" value="User" style="shape=umlActor;verticalLabelPosition=bottom;verticalAlign=top;html=1;" vertex="1" parent="1">
          <mxGeometry x="20" y="360" width="30" height="60" as="geometry" />
        </mxCell>
        <mxCell id="7Sdm-dlIE7TSx_qIGZJZ-53" value="SkyScraper Webapp" style="rhombus;whiteSpace=wrap;html=1;" vertex="1" parent="1">
          <mxGeometry x="880" y="333" width="80" height="80" as="geometry" />
        </mxCell>
        <mxCell id="7Sdm-dlIE7TSx_qIGZJZ-54" value="Search for Flights" style="ellipse;whiteSpace=wrap;html=1;" vertex="1" parent="1">
          <mxGeometry x="180" y="360" width="140" height="70" as="geometry" />
        </mxCell>
        <mxCell id="7Sdm-dlIE7TSx_qIGZJZ-55" value="Arrival/Departure City Selection" style="ellipse;whiteSpace=wrap;html=1;" vertex="1" parent="1">
          <mxGeometry x="440" y="390" width="140" height="70" as="geometry" />
        </mxCell>
        <mxCell id="7Sdm-dlIE7TSx_qIGZJZ-56" value="Flight Class Selection" style="ellipse;whiteSpace=wrap;html=1;" vertex="1" parent="1">
          <mxGeometry x="290" y="580" width="140" height="70" as="geometry" />
        </mxCell>
        <mxCell id="7Sdm-dlIE7TSx_qIGZJZ-57" value="Currency Selection" style="ellipse;whiteSpace=wrap;html=1;" vertex="1" parent="1">
          <mxGeometry x="130" y="510" width="140" height="70" as="geometry" />
        </mxCell>
        <mxCell id="7Sdm-dlIE7TSx_qIGZJZ-58" value="User Feedback" style="ellipse;whiteSpace=wrap;html=1;" vertex="1" parent="1">
          <mxGeometry x="120" y="660" width="140" height="70" as="geometry" />
        </mxCell>
        <mxCell id="7Sdm-dlIE7TSx_qIGZJZ-59" value="Store Payment Information" style="ellipse;whiteSpace=wrap;html=1;" vertex="1" parent="1">
          <mxGeometry x="620" y="380" width="140" height="70" as="geometry" />
        </mxCell>
        <mxCell id="7Sdm-dlIE7TSx_qIGZJZ-60" value="Continuous Patching" style="ellipse;whiteSpace=wrap;html=1;" vertex="1" parent="1">
          <mxGeometry x="640" y="520" width="140" height="70" as="geometry" />
        </mxCell>
        <mxCell id="7Sdm-dlIE7TSx_qIGZJZ-61" value="Visualize Flight History" style="ellipse;whiteSpace=wrap;html=1;" vertex="1" parent="1">
          <mxGeometry x="570" y="220" width="140" height="70" as="geometry" />
        </mxCell>
        <mxCell id="7Sdm-dlIE7TSx_qIGZJZ-62" value="Show Flight Times" style="ellipse;whiteSpace=wrap;html=1;" vertex="1" parent="1">
          <mxGeometry x="430" y="520" width="140" height="70" as="geometry" />
        </mxCell>
        <mxCell id="7Sdm-dlIE7TSx_qIGZJZ-63" value="Calculates [Lowest] Flight Prices" style="ellipse;whiteSpace=wrap;html=1;" vertex="1" parent="1">
          <mxGeometry x="620" y="90" width="140" height="70" as="geometry" />
        </mxCell>
        <mxCell id="7Sdm-dlIE7TSx_qIGZJZ-64" value="Disability Boarding Accomodations" style="ellipse;whiteSpace=wrap;html=1;" vertex="1" parent="1">
          <mxGeometry x="430" y="80" width="140" height="70" as="geometry" />
        </mxCell>
        <mxCell id="7Sdm-dlIE7TSx_qIGZJZ-67" value="Extends" style="endArrow=block;endSize=16;endFill=0;html=1;rounded=0;entryX=0.5;entryY=1;entryDx=0;entryDy=0;" edge="1" parent="1" source="7Sdm-dlIE7TSx_qIGZJZ-54" target="7Sdm-dlIE7TSx_qIGZJZ-51">
          <mxGeometry x="-0.168" y="1" width="160" relative="1" as="geometry">
            <mxPoint x="430" y="270" as="sourcePoint" />
            <mxPoint x="360" y="290" as="targetPoint" />
            <Array as="points" />
            <mxPoint as="offset" />
          </mxGeometry>
        </mxCell>
        <mxCell id="7Sdm-dlIE7TSx_qIGZJZ-69" value="" style="endArrow=open;endFill=1;endSize=12;html=1;rounded=0;exitX=0.75;exitY=0.1;exitDx=0;exitDy=0;exitPerimeter=0;" edge="1" parent="1" source="7Sdm-dlIE7TSx_qIGZJZ-52" target="7Sdm-dlIE7TSx_qIGZJZ-51">
          <mxGeometry width="160" relative="1" as="geometry">
            <mxPoint x="170" y="279.31" as="sourcePoint" />
            <mxPoint x="350" y="230" as="targetPoint" />
          </mxGeometry>
        </mxCell>
        <mxCell id="7Sdm-dlIE7TSx_qIGZJZ-70" value="" style="endArrow=open;endFill=1;endSize=12;html=1;rounded=0;entryX=0;entryY=0.5;entryDx=0;entryDy=0;startArrow=none;" edge="1" parent="1" target="7Sdm-dlIE7TSx_qIGZJZ-54">
          <mxGeometry width="160" relative="1" as="geometry">
            <mxPoint x="35" y="390" as="sourcePoint" />
            <mxPoint x="330" y="300" as="targetPoint" />
          </mxGeometry>
        </mxCell>
        <mxCell id="7Sdm-dlIE7TSx_qIGZJZ-71" value="" style="endArrow=open;endFill=1;endSize=12;html=1;rounded=0;entryX=0;entryY=0.5;entryDx=0;entryDy=0;exitX=0.833;exitY=0.928;exitDx=0;exitDy=0;exitPerimeter=0;" edge="1" parent="1" source="7Sdm-dlIE7TSx_qIGZJZ-52" target="7Sdm-dlIE7TSx_qIGZJZ-58">
          <mxGeometry width="160" relative="1" as="geometry">
            <mxPoint x="170" y="340" as="sourcePoint" />
            <mxPoint x="320" y="400" as="targetPoint" />
          </mxGeometry>
        </mxCell>
        <mxCell id="7Sdm-dlIE7TSx_qIGZJZ-72" value="&amp;lt;&amp;lt;Includes&amp;gt;&amp;gt;" style="endArrow=open;endSize=12;dashed=1;html=1;rounded=0;entryX=0.003;entryY=0.384;entryDx=0;entryDy=0;entryPerimeter=0;exitX=0.991;exitY=0.621;exitDx=0;exitDy=0;exitPerimeter=0;" edge="1" parent="1" source="7Sdm-dlIE7TSx_qIGZJZ-51" target="7Sdm-dlIE7TSx_qIGZJZ-59">
          <mxGeometry width="160" relative="1" as="geometry">
            <mxPoint x="470" y="200" as="sourcePoint" />
            <mxPoint x="460" y="90" as="targetPoint" />
            <Array as="points" />
          </mxGeometry>
        </mxCell>
        <mxCell id="7Sdm-dlIE7TSx_qIGZJZ-78" value="Extends" style="endArrow=block;endSize=16;endFill=0;html=1;rounded=0;" edge="1" parent="1" source="7Sdm-dlIE7TSx_qIGZJZ-63" target="7Sdm-dlIE7TSx_qIGZJZ-54">
          <mxGeometry x="-0.5448" y="-2" width="160" relative="1" as="geometry">
            <mxPoint x="545" y="270" as="sourcePoint" />
            <mxPoint x="530" y="210" as="targetPoint" />
            <Array as="points" />
            <mxPoint as="offset" />
          </mxGeometry>
        </mxCell>
        <mxCell id="7Sdm-dlIE7TSx_qIGZJZ-79" value="Extends" style="endArrow=block;endSize=16;endFill=0;html=1;rounded=0;exitX=0.023;exitY=0.68;exitDx=0;exitDy=0;exitPerimeter=0;" edge="1" parent="1" source="7Sdm-dlIE7TSx_qIGZJZ-60" target="7Sdm-dlIE7TSx_qIGZJZ-58">
          <mxGeometry width="160" relative="1" as="geometry">
            <mxPoint x="710" y="556" as="sourcePoint" />
            <mxPoint x="700" y="510" as="targetPoint" />
            <Array as="points">
              <mxPoint x="460" y="690" />
            </Array>
          </mxGeometry>
        </mxCell>
        <mxCell id="7Sdm-dlIE7TSx_qIGZJZ-83" value="" style="endArrow=open;endFill=1;endSize=12;html=1;rounded=0;exitX=0;exitY=0.5;exitDx=0;exitDy=0;" edge="1" parent="1" source="7Sdm-dlIE7TSx_qIGZJZ-53" target="7Sdm-dlIE7TSx_qIGZJZ-61">
          <mxGeometry width="160" relative="1" as="geometry">
            <mxPoint x="770" y="340" as="sourcePoint" />
            <mxPoint x="930" y="340" as="targetPoint" />
            <Array as="points">
              <mxPoint x="800" y="330" />
            </Array>
          </mxGeometry>
        </mxCell>
        <mxCell id="7Sdm-dlIE7TSx_qIGZJZ-84" value="" style="endArrow=open;endFill=1;endSize=12;html=1;rounded=0;entryX=0.942;entryY=0.768;entryDx=0;entryDy=0;entryPerimeter=0;exitX=0.5;exitY=0;exitDx=0;exitDy=0;" edge="1" parent="1" source="7Sdm-dlIE7TSx_qIGZJZ-53" target="7Sdm-dlIE7TSx_qIGZJZ-63">
          <mxGeometry width="160" relative="1" as="geometry">
            <mxPoint x="920" y="330" as="sourcePoint" />
            <mxPoint x="810" y="262" as="targetPoint" />
            <Array as="points">
              <mxPoint x="870" y="290" />
            </Array>
          </mxGeometry>
        </mxCell>
        <mxCell id="7Sdm-dlIE7TSx_qIGZJZ-85" value="" style="endArrow=open;endFill=1;endSize=12;html=1;rounded=0;entryX=0.984;entryY=0.67;entryDx=0;entryDy=0;entryPerimeter=0;" edge="1" parent="1" source="7Sdm-dlIE7TSx_qIGZJZ-53" target="7Sdm-dlIE7TSx_qIGZJZ-59">
          <mxGeometry width="160" relative="1" as="geometry">
            <mxPoint x="880" y="408" as="sourcePoint" />
            <mxPoint x="790" y="413" as="targetPoint" />
          </mxGeometry>
        </mxCell>
        <mxCell id="7Sdm-dlIE7TSx_qIGZJZ-86" value="" style="endArrow=open;endFill=1;endSize=12;html=1;rounded=0;" edge="1" parent="1" source="7Sdm-dlIE7TSx_qIGZJZ-53" target="7Sdm-dlIE7TSx_qIGZJZ-60">
          <mxGeometry width="160" relative="1" as="geometry">
            <mxPoint x="860" y="470" as="sourcePoint" />
            <mxPoint x="820" y="520" as="targetPoint" />
          </mxGeometry>
        </mxCell>
        <mxCell id="7Sdm-dlIE7TSx_qIGZJZ-88" value="&amp;lt;&amp;lt;Includes&amp;gt;&amp;gt;" style="endArrow=open;endSize=12;dashed=1;html=1;rounded=0;exitX=0.991;exitY=0.621;exitDx=0;exitDy=0;exitPerimeter=0;entryX=0;entryY=0.5;entryDx=0;entryDy=0;" edge="1" parent="1" target="7Sdm-dlIE7TSx_qIGZJZ-61">
          <mxGeometry x="-0.0412" y="-1" width="160" relative="1" as="geometry">
            <mxPoint x="320" y="184.66" as="sourcePoint" />
            <mxPoint x="480" y="184.66" as="targetPoint" />
            <Array as="points" />
            <mxPoint as="offset" />
          </mxGeometry>
        </mxCell>
        <mxCell id="7Sdm-dlIE7TSx_qIGZJZ-91" value="&amp;lt;&amp;lt;Includes&amp;gt;&amp;gt;" style="endArrow=open;endSize=12;dashed=1;html=1;rounded=0;exitX=0.5;exitY=1;exitDx=0;exitDy=0;entryX=0.75;entryY=0.025;entryDx=0;entryDy=0;entryPerimeter=0;" edge="1" parent="1" source="7Sdm-dlIE7TSx_qIGZJZ-54" target="7Sdm-dlIE7TSx_qIGZJZ-57">
          <mxGeometry x="-0.4783" width="160" relative="1" as="geometry">
            <mxPoint x="135" y="519.83" as="sourcePoint" />
            <mxPoint x="220" y="480" as="targetPoint" />
            <Array as="points" />
            <mxPoint as="offset" />
          </mxGeometry>
        </mxCell>
        <mxCell id="7Sdm-dlIE7TSx_qIGZJZ-92" value="&amp;lt;&amp;lt;Includes&amp;gt;&amp;gt;" style="endArrow=open;endSize=12;dashed=1;html=1;rounded=0;exitX=0.75;exitY=0.97;exitDx=0;exitDy=0;exitPerimeter=0;" edge="1" parent="1" source="7Sdm-dlIE7TSx_qIGZJZ-54" target="7Sdm-dlIE7TSx_qIGZJZ-56">
          <mxGeometry x="-0.4783" width="160" relative="1" as="geometry">
            <mxPoint x="285" y="430" as="sourcePoint" />
            <mxPoint x="320" y="480" as="targetPoint" />
            <Array as="points" />
            <mxPoint as="offset" />
          </mxGeometry>
        </mxCell>
        <mxCell id="7Sdm-dlIE7TSx_qIGZJZ-93" value="&amp;lt;&amp;lt;Includes&amp;gt;&amp;gt;" style="endArrow=open;endSize=12;dashed=1;html=1;rounded=0;exitX=0.75;exitY=0.97;exitDx=0;exitDy=0;exitPerimeter=0;entryX=0.031;entryY=0.35;entryDx=0;entryDy=0;entryPerimeter=0;" edge="1" parent="1" target="7Sdm-dlIE7TSx_qIGZJZ-62">
          <mxGeometry x="-0.4783" width="160" relative="1" as="geometry">
            <mxPoint x="320" y="397" as="sourcePoint" />
            <mxPoint x="378" y="510" as="targetPoint" />
            <Array as="points" />
            <mxPoint as="offset" />
          </mxGeometry>
        </mxCell>
        <mxCell id="7Sdm-dlIE7TSx_qIGZJZ-95" value="&amp;lt;&amp;lt;Includes&amp;gt;&amp;gt;" style="endArrow=open;endSize=12;dashed=1;html=1;rounded=0;exitX=0.986;exitY=0.31;exitDx=0;exitDy=0;exitPerimeter=0;entryX=0.019;entryY=0.418;entryDx=0;entryDy=0;entryPerimeter=0;" edge="1" parent="1" source="7Sdm-dlIE7TSx_qIGZJZ-54" target="7Sdm-dlIE7TSx_qIGZJZ-55">
          <mxGeometry x="-0.4783" width="160" relative="1" as="geometry">
            <mxPoint x="346" y="351" as="sourcePoint" />
            <mxPoint x="430" y="360" as="targetPoint" />
            <Array as="points" />
            <mxPoint as="offset" />
          </mxGeometry>
        </mxCell>
        <mxCell id="7Sdm-dlIE7TSx_qIGZJZ-97" value="Extends" style="endArrow=block;endSize=16;endFill=0;html=1;rounded=0;entryX=0.774;entryY=0.049;entryDx=0;entryDy=0;entryPerimeter=0;" edge="1" parent="1" source="7Sdm-dlIE7TSx_qIGZJZ-64" target="7Sdm-dlIE7TSx_qIGZJZ-51">
          <mxGeometry width="160" relative="1" as="geometry">
            <mxPoint x="390" y="90" as="sourcePoint" />
            <mxPoint x="320" y="170" as="targetPoint" />
          </mxGeometry>
        </mxCell>
        <mxCell id="7Sdm-dlIE7TSx_qIGZJZ-100" value="Extends" style="endArrow=block;endSize=16;endFill=0;html=1;rounded=0;entryX=0.97;entryY=0.236;entryDx=0;entryDy=0;entryPerimeter=0;exitX=0.381;exitY=1.045;exitDx=0;exitDy=0;exitPerimeter=0;" edge="1" parent="1" source="7Sdm-dlIE7TSx_qIGZJZ-61" target="7Sdm-dlIE7TSx_qIGZJZ-62">
          <mxGeometry x="-0.6887" y="-5" width="160" relative="1" as="geometry">
            <mxPoint x="610" y="380" as="sourcePoint" />
            <mxPoint x="570" y="510" as="targetPoint" />
            <mxPoint x="1" as="offset" />
          </mxGeometry>
        </mxCell>
      </root>
    </mxGraphModel>
  </diagram>
</mxfile>
